<?xml version="1.0" encoding="UTF-8" standalone="no"?><!DOCTYPE svg PUBLIC "-//W3C//DTD SVG 1.1//EN" "http://www.w3.org/Graphics/SVG/1.1/DTD/svg11.dtd"><svg width="100%" height="100%" viewBox="0 0 2500 2500" version="1.1" xmlns="http://www.w3.org/2000/svg" xmlns:xlink="http://www.w3.org/1999/xlink" xml:space="preserve" xmlns:serif="http://www.serif.com/" style="fill-rule:evenodd;clip-rule:evenodd;stroke-linejoin:round;stroke-miterlimit:2;"><g><path d="M467.929,998.705l207.116,0l-0,906.698l-207.116,0l-0,-906.698Zm104.386,-149.418c-37.557,0 -69.039,-12.168 -94.445,-36.505c-25.406,-24.338 -38.109,-54.617 -38.109,-90.84c-0,-36.223 12.703,-66.503 38.109,-90.84c25.406,-24.337 56.888,-36.505 94.445,-36.505c37.557,-0 69.039,11.602 94.445,34.807c25.407,23.206 38.11,52.353 38.11,87.444c-0,37.355 -12.427,68.767 -37.281,94.236c-24.854,25.469 -56.612,38.203 -95.274,38.203Z" style="fill-rule:nonzero;stroke:#000;stroke-width:4.17px;"/><path d="M1718.91,1630.34l-579.925,-0l-114.329,275.065l-222.028,0l521.933,-1188.56l212.087,0l523.59,1188.56l-225.342,0l-115.986,-275.065Zm-71.248,-173.19l-218.714,-519.568l-217.058,519.568l435.772,0Z" style="fill-rule:nonzero;stroke:#000;stroke-width:4.17px;"/></g></svg>