<?xml version="1.0" encoding="utf-8"?>
<!-- Generator: Adobe Illustrator 15.1.0, SVG Export Plug-In . SVG Version: 6.00 Build 0)  -->
<!DOCTYPE svg PUBLIC "-//W3C//DTD SVG 1.1//EN" "http://www.w3.org/Graphics/SVG/1.1/DTD/svg11.dtd">
<svg version="1.1" xmlns="http://www.w3.org/2000/svg" xmlns:xlink="http://www.w3.org/1999/xlink" x="0px" y="0px"
	 width="280.091px" height="325.095px" viewBox="0 0 280.091 325.095" enable-background="new 0 0 280.091 325.095"
	 xml:space="preserve">
<!-- 222221 -->
<g id="valmiit_ikonit">
	<g>
		<path fill="#147796" d="M254.794,104.91l-0.002-13.393c0-20.969-17.06-38.027-38.028-38.027H189.02
			c-4.021,0-7.772,1.307-10.834,3.535c-9.486-6.813-22.255-10.268-38.14-10.268s-28.654,3.457-38.14,10.268
			c-3.062-2.229-6.814-3.535-10.835-3.535H63.327c-20.968,0-38.027,17.059-38.03,38.027v13.395c0,0.178,0.012,0.354,0.034,0.525
			c-0.018,0.529-0.034,1.059-0.034,1.594c0,19.314,7.744,40.834,20.716,57.566c12.515,16.143,28.025,25.93,44.279,28.102
			c-3.827,10.928-8.093,17.971-8.17,18.096c-0.791,1.279-0.827,2.887-0.095,4.201c0.733,1.314,2.12,2.129,3.625,2.129
			c11.836,0,26.452-26.484,30.307-44.719c3.529,4.234,5.656,9.676,5.656,15.605c0,0.146,0.028,0.283,0.043,0.424
			c-0.015,0.143-0.043,0.279-0.043,0.426v28.85c-2.925-1.928-6.412-3.045-10.129-3.045c-10.161,0-18.429,8.268-18.431,18.43v11.641
			c0,0.1,0.004,0.199,0.011,0.297c-0.006,0.197-0.011,0.396-0.011,0.596c0,18.037,14.674,32.709,32.71,32.709
			s32.71-14.672,32.71-32.709v-0.338v-3.813v-53.467c0-5.762,2.011-11.059,5.362-15.238c3.971,18.219,18.471,44.352,30.229,44.352
			c1.505,0,2.892-0.814,3.625-2.129c0.732-1.314,0.696-2.922-0.095-4.201c-0.078-0.127-4.343-7.137-8.169-18.053
			c16.389-2.072,32.041-11.879,44.65-28.145c12.972-16.732,20.716-38.252,20.716-57.566c0-0.533-0.017-1.063-0.034-1.59
			C254.782,105.266,254.794,105.09,254.794,104.91z M99.102,192.684c0.59-1.822,1.159-3.73,1.695-5.717
			c1.799-6.67,3.191-14.217,3.619-22.277c1.435,0.445,2.811,1.023,4.12,1.711c-0.522,6.066-3.178,14.346-7.193,22.475
			c-0.599,1.213-1.229,2.418-1.886,3.615C99.345,192.564,99.222,192.621,99.102,192.684z M178.807,189.73
			c-4.211-8.316-7.027-16.879-7.608-23.143c1.304-0.713,2.68-1.309,4.112-1.777c0.445,8.203,1.889,15.871,3.738,22.623
			c0.474,1.725,0.971,3.393,1.484,4.994c-0.197-0.137-0.382-0.289-0.553-0.457C179.578,191.227,179.187,190.48,178.807,189.73z
			 M246.493,104.246c-0.042,0.26-0.06,0.523-0.052,0.791l0.019,0.549c0.017,0.48,0.033,0.961,0.033,1.445
			c0,33.893-26.229,74.551-59.565,77.637c-1.71-6.346-3.031-13.518-3.377-21.133c1.974-0.32,3.484-2.02,3.484-4.082
			c0-2.293-1.858-4.15-4.15-4.15c-6.695,0-12.926,2.025-18.116,5.49c-0.101,0.063-0.198,0.129-0.294,0.199
			c-8.584,5.867-14.242,15.713-14.296,26.861h-0.004v53.625v3.813v0.338c0,13.459-10.949,24.41-24.409,24.41
			s-24.409-10.951-24.409-24.41c0-0.174,0.006-0.346,0.012-0.518l0.009-0.254c0.005-0.182-0.002-0.365-0.021-0.545l0.001-11.217
			c0-5.586,4.544-10.129,10.129-10.129c4.887,0,9.072,3.486,9.952,8.291c0.04,0.221,0.104,0.434,0.177,0.641v13.73
			c0,2.293,1.858,4.15,4.15,4.15s4.15-1.857,4.15-4.15v-10.975v-8.301v-37.492c0-0.146-0.028-0.283-0.043-0.426
			c0.015-0.141,0.043-0.277,0.043-0.424c0-18.035-14.674-32.709-32.71-32.709c-2.292,0-4.15,1.857-4.15,4.15
			c0,1.932,1.327,3.541,3.116,4.004c-0.341,7.621-1.666,14.809-3.383,21.176c-33.159-3.354-59.191-43.836-59.191-77.602
			c0-0.484,0.017-0.965,0.033-1.445l0.019-0.549c0.008-0.258-0.011-0.516-0.052-0.768L33.6,91.518
			c0-16.393,13.336-29.729,29.728-29.729h27.744c1.545,0,3.019,0.352,4.341,0.979c-0.389,0.422-0.784,0.836-1.156,1.275
			c-8.215,9.676-12.38,23.432-12.38,40.885c0,2.291,1.858,4.15,4.15,4.15s4.15-1.859,4.15-4.15c0-15.586,3.524-27.445,10.654-35.684
			c1.921-2.219,4.103-4.176,6.548-5.869c8.027-5.563,18.892-8.318,32.667-8.318s24.639,2.754,32.667,8.316
			c2.445,1.693,4.627,3.65,6.547,5.867c7.133,8.24,10.657,20.102,10.657,35.688c0,2.291,1.858,4.15,4.15,4.15s4.15-1.859,4.15-4.15
			c0-17.453-4.166-31.209-12.381-40.885c-0.372-0.439-0.769-0.854-1.157-1.275c1.322-0.627,2.795-0.979,4.34-0.979h27.744
			c16.392,0,29.729,13.338,29.729,29.729V104.246z"/>
		<g>
			<path fill="#147796" d="M115.656,107.896c-7.647,0-13.847,6.199-13.847,13.848c0,7.646,6.199,13.846,13.847,13.846
				c7.646,0,13.846-6.199,13.846-13.846C129.502,114.096,123.303,107.896,115.656,107.896z M124.5,121.744
				c0,4.877-3.969,8.846-8.845,8.846c-4.877,0-8.85-3.969-8.85-8.846c0-4.879,3.973-8.848,8.85-8.848
				C120.531,112.896,124.5,116.865,124.5,121.744z"/>
		</g>
		<g>
			<path fill="#147796" d="M165.935,107.896c-7.647,0-13.847,6.199-13.847,13.848c0,7.646,6.199,13.846,13.847,13.846
				c7.646,0,13.846-6.199,13.846-13.846C179.78,114.096,173.581,107.896,165.935,107.896z M174.778,121.744
				c0,4.877-3.969,8.846-8.845,8.846c-4.877,0-8.85-3.969-8.85-8.846c0-4.879,3.973-8.848,8.85-8.848
				C170.81,112.896,174.778,116.865,174.778,121.744z"/>
		</g>
		<path fill="#147796" d="M119.781,120.49c-1.86,0-3.38-1.516-3.38-3.375c0-0.375,0.075-0.729,0.19-1.064
			c-0.31-0.051-0.617-0.096-0.938-0.096c-3.192,0-5.788,2.596-5.788,5.785c0,3.195,2.596,5.791,5.788,5.791s5.787-2.596,5.787-5.791
			c0-0.549-0.1-1.068-0.245-1.572C120.765,120.369,120.286,120.49,119.781,120.49z"/>
		<path fill="#147796" d="M170.063,120.49c-1.86,0-3.38-1.516-3.38-3.375c0-0.375,0.075-0.729,0.19-1.064
			c-0.31-0.051-0.617-0.096-0.938-0.096c-3.192,0-5.788,2.596-5.788,5.785c0,3.195,2.596,5.791,5.788,5.791s5.787-2.596,5.787-5.791
			c0-0.549-0.1-1.068-0.245-1.572C171.046,120.369,170.567,120.49,170.063,120.49z"/>
	</g>
</g>
</svg>
