<svg width="145" height="94" viewBox="0 0 145 94" fill="none" xmlns="http://www.w3.org/2000/svg">
<g clip-path="url(#clip0_332_11311)">
<path d="M139.162 94H4.84195C2.17195 94 0.00195312 91.83 0.00195312 89.16V4.84C0.00195312 2.17 2.17195 0 4.84195 0H139.152C141.832 0 143.992 2.17 143.992 4.84V89.15C144.002 91.83 141.832 94 139.162 94Z" fill="#D5D5DC"/>
<path d="M144.002 13.9414H0.00195312V23.9414H144.002V13.9414Z" fill="#333333"/>
<path d="M137.002 31.21H7.00195V51.21H137.002V31.21Z" fill="white"/>
<path d="M112.681 46.0272H110.721L112.181 38.5372L110.611 39.4472L111.001 37.4272L112.791 36.3672H114.551L112.681 46.0272Z" fill="#333333"/>
<path d="M121.831 46.03H115.861L116.111 44.77L120.071 40.96C120.971 40.11 121.371 39.48 121.371 38.82C121.371 38.19 120.921 37.87 120.361 37.87C119.701 37.87 119.141 38.28 118.931 39.05H117.191C117.481 37.4 118.961 36.25 120.781 36.25C122.281 36.25 123.341 37.34 123.341 38.69C123.341 40.13 122.191 41.23 121.321 42.05L118.881 44.39H122.131L121.831 46.03Z" fill="#333333"/>
<path d="M126.541 40.2183H127.251C128.191 40.2183 128.861 39.6883 128.861 38.7983C128.861 38.2483 128.481 37.8583 127.851 37.8583C127.161 37.8583 126.651 38.2883 126.451 38.8983H124.711C125.091 37.3183 126.431 36.2383 128.271 36.2383C129.811 36.2383 130.851 37.3283 130.851 38.6383C130.851 39.8883 129.971 40.6583 129.061 41.0583C129.691 41.3983 130.141 42.0483 130.141 42.9383C130.141 44.7483 128.801 46.1583 126.461 46.1583C124.431 46.1583 123.571 44.8583 123.711 43.4383H125.431C125.401 44.0583 125.781 44.4983 126.651 44.4983C127.551 44.4983 128.191 43.7983 128.191 42.9283C128.191 42.2683 127.781 41.8683 126.941 41.8683H126.231L126.541 40.2183Z" fill="#333333"/>
<path d="M137.002 31.21V51.21H102.362V31.21H137.002ZM140.002 28.21H137.002H102.362H99.3623V31.21V51.21V54.21H102.362H137.002H140.002V51.21V31.21V28.21Z" fill="#F08080"/>
</g>
<defs>
<clipPath id="clip0_332_11311">
<rect width="144" height="94" fill="white" transform="translate(0.00195312)"/>
</clipPath>
</defs>
</svg>
